<?xml version="1.0" encoding="utf-8"?>
<svg viewBox="0 0 24 24" width="24" height="24" xmlns="http://www.w3.org/2000/svg">
  <ellipse style="stroke: rgb(0, 0, 0); fill: rgb(255, 255, 255); stroke-width: 0.75px;" cx="12" cy="12" rx="10" ry="10"/>
  <path fill="none" d="M0 0h24v24H0z"/>
  <path d="M 8.667 6.666 L 8.667 5.333 L 15.333 5.333 L 15.333 6.666 L 17.338 6.666 C 17.703 6.666 18 6.963 18 7.328 L 18 18.004 C 18 18.37 17.703 18.666 17.338 18.666 L 6.662 18.666 C 6.297 18.666 6 18.37 6 18.004 L 6 7.328 C 6 6.963 6.297 6.666 6.662 6.666 L 8.667 6.666 Z M 8.667 8 L 7.333 8 L 7.333 17.333 L 16.667 17.333 L 16.667 8 L 15.333 8 L 15.333 9.333 L 8.667 9.333 L 8.667 8 Z M 10 6.666 L 10 8 L 14 8 L 14 6.666 L 10 6.666 Z"/>
</svg>