<?xml version="1.0" encoding="utf-8"?>
<svg viewBox="0 0 24 24" width="24" height="24" xmlns="http://www.w3.org/2000/svg">
  <ellipse style="stroke: rgb(0, 0, 0); fill: rgb(255, 255, 255); stroke-width: 0.75px;" cx="12" cy="12" rx="10" ry="10"/>
  <path fill="none" d="M0 0H24V24H0z"/>
  <path d="M 6 18 L 6 16.667 L 7.333 16.667 L 7.333 6.667 C 7.333 6.299 7.632 6 8 6 L 16 6 C 16.368 6 16.667 6.299 16.667 6.667 L 16.667 16.667 L 18 16.667 L 18 18 L 6 18 Z M 15.333 7.333 L 8.667 7.333 L 8.667 16.667 L 15.333 16.667 L 15.333 7.333 Z M 14 11.333 L 14 12.667 L 12.667 12.667 L 12.667 11.333 L 14 11.333 Z"/>
</svg>