<?xml version="1.0" encoding="utf-8"?>
<svg viewBox="0 0 24 24" width="24px" height="24px" xmlns="http://www.w3.org/2000/svg">
  <ellipse style="stroke: rgb(0, 0, 0); fill: rgb(255, 255, 255); stroke-width: 0.75px;" cx="12" cy="12" rx="10" ry="10"/>
  <path fill="none" d="M0 0h24v24H0z"/>
  <path d="M 12 18.65 C 8.328 18.65 5.35 15.672 5.35 12 C 5.35 8.328 8.328 5.35 12 5.35 C 15.672 5.35 18.65 8.328 18.65 12 C 18.65 15.672 15.672 18.65 12 18.65 Z M 10.477 17.098 C 9.82 15.706 9.441 14.201 9.358 12.665 L 6.722 12.665 C 6.986 14.755 8.459 16.494 10.477 17.098 Z M 10.69 12.665 C 10.791 14.287 11.254 15.811 12 17.155 C 12.766 15.776 13.215 14.241 13.31 12.665 L 10.69 12.665 Z M 17.278 12.665 L 14.642 12.665 C 14.559 14.201 14.18 15.706 13.523 17.098 C 15.541 16.494 17.014 14.755 17.278 12.665 Z M 6.722 11.335 L 9.358 11.335 C 9.441 9.799 9.82 8.294 10.477 6.902 C 8.459 7.506 6.986 9.245 6.722 11.335 Z M 10.69 11.335 L 13.31 11.335 C 13.213 9.759 12.766 8.224 12 6.845 C 11.234 8.224 10.785 9.759 10.69 11.335 Z M 13.523 6.902 C 14.18 8.294 14.559 9.799 14.642 11.335 L 17.278 11.335 C 17.014 9.245 15.541 7.506 13.523 6.902 Z" style="stroke-width: 0.75px;"/>
</svg>