<?xml version="1.0" encoding="utf-8"?>
<svg viewBox="0 0 24 24" width="24" height="24" xmlns="http://www.w3.org/2000/svg">
  <ellipse style="stroke: rgb(0, 0, 0); fill: rgb(255, 255, 255); stroke-width: 0.75px;" cx="12" cy="12" rx="10" ry="10"/>
  <path fill="none" d="M0 0H24V24H0z"/>
  <path d="M 10 6 C 10.368 6 10.666 6.299 10.666 6.667 L 10.666 17.333 C 10.666 17.701 10.368 18 10 18 L 6 18 C 5.632 18 5.333 17.701 5.333 17.333 L 5.333 6.667 C 5.333 6.299 5.632 6 6 6 L 10 6 Z M 9.333 7.333 L 6.666 7.333 L 6.666 16.667 L 9.333 16.667 L 9.333 7.333 Z M 15.333 8.667 C 17.174 8.667 18.666 10.159 18.666 12 C 18.666 13.841 17.174 15.333 15.333 15.333 C 13.492 15.333 12 13.841 12 12 C 12 10.159 13.492 8.667 15.333 8.667 Z M 16 10 L 14.666 10 L 14.666 11.333 L 13.333 11.333 L 13.333 12.667 L 14.666 12.666 L 14.666 14 L 16 14 L 16 12.666 L 17.333 12.667 L 17.333 11.333 L 16 11.333 L 16 10 Z"/>
</svg>