<?xml version="1.0" encoding="utf-8"?>
<svg viewBox="0 0 24 24" width="24" height="24" xmlns="http://www.w3.org/2000/svg">
  <ellipse style="stroke: rgb(0, 0, 0); fill: rgb(255, 255, 255); stroke-width: 0.75px;" cx="12" cy="12" rx="10" ry="10"/>
  <path fill="none" d="M0 0h24v24H0z"/>
  <path d="M 5.493 13.369 C 5.302 12.466 5.302 11.533 5.493 10.63 C 6.231 10.716 6.876 10.472 7.086 9.964 C 7.296 9.456 7.014 8.827 6.43 8.367 C 6.933 7.593 7.593 6.933 8.367 6.43 C 8.827 7.013 9.456 7.296 9.964 7.086 C 10.473 6.875 10.717 6.231 10.63 5.493 C 11.533 5.302 12.466 5.302 13.369 5.493 C 13.282 6.231 13.526 6.876 14.034 7.086 C 14.543 7.296 15.171 7.014 15.632 6.43 C 16.406 6.933 17.065 7.593 17.569 8.367 C 16.985 8.827 16.702 9.456 16.913 9.964 C 17.124 10.473 17.768 10.717 18.506 10.63 C 18.697 11.533 18.697 12.466 18.506 13.369 C 17.768 13.282 17.123 13.526 16.913 14.034 C 16.702 14.543 16.985 15.171 17.569 15.632 C 17.065 16.406 16.406 17.065 15.632 17.569 C 15.172 16.985 14.543 16.702 14.034 16.913 C 13.526 17.124 13.282 17.768 13.369 18.506 C 12.466 18.697 11.533 18.697 10.63 18.506 C 10.716 17.768 10.472 17.123 9.964 16.913 C 9.456 16.702 8.827 16.985 8.367 17.569 C 7.593 17.065 6.933 16.406 6.43 15.632 C 7.013 15.172 7.296 14.543 7.086 14.034 C 6.875 13.526 6.231 13.282 5.493 13.369 Z M 6.681 12.139 C 7.412 12.342 8.015 12.805 8.314 13.526 C 8.613 14.247 8.514 15.002 8.14 15.661 C 8.204 15.729 8.27 15.795 8.337 15.859 C 8.998 15.485 9.752 15.387 10.473 15.684 C 11.194 15.984 11.657 16.587 11.86 17.318 C 11.953 17.321 12.046 17.321 12.139 17.318 C 12.342 16.587 12.805 15.984 13.526 15.684 C 14.247 15.386 15.002 15.485 15.661 15.859 C 15.729 15.795 15.795 15.729 15.859 15.661 C 15.485 15.001 15.387 14.247 15.684 13.526 C 15.984 12.805 16.587 12.342 17.318 12.139 C 17.321 12.046 17.321 11.953 17.318 11.86 C 16.587 11.657 15.984 11.194 15.684 10.473 C 15.386 9.752 15.485 8.997 15.859 8.337 C 15.795 8.27 15.729 8.204 15.661 8.14 C 15.001 8.514 14.247 8.612 13.526 8.314 C 12.805 8.015 12.342 7.412 12.139 6.681 C 12.046 6.678 11.953 6.678 11.86 6.681 C 11.657 7.412 11.194 8.015 10.473 8.314 C 9.752 8.613 8.997 8.514 8.337 8.14 C 8.27 8.204 8.204 8.27 8.14 8.337 C 8.514 8.998 8.612 9.752 8.314 10.473 C 8.015 11.194 7.412 11.657 6.681 11.86 C 6.678 11.953 6.678 12.046 6.681 12.139 Z M 11.999 13.994 C 10.464 13.994 9.504 12.332 10.272 11.002 C 10.628 10.385 11.287 10.005 11.999 10.005 C 13.535 10.005 14.494 11.667 13.727 12.997 C 13.37 13.614 12.712 13.994 11.999 13.994 Z M 11.999 12.664 C 12.511 12.664 12.831 12.11 12.575 11.667 C 12.456 11.461 12.237 11.334 11.999 11.334 C 11.488 11.334 11.168 11.889 11.424 12.332 C 11.542 12.537 11.762 12.664 11.999 12.664 Z"/>
</svg>