<?xml version="1.0" encoding="utf-8"?>
<svg viewBox="0 0 24 24" width="24" height="24" xmlns="http://www.w3.org/2000/svg">
  <ellipse style="stroke: rgb(0, 0, 0); fill: rgb(255, 255, 255); stroke-width: 0.75px;" cx="12" cy="12" rx="10" ry="10"/>
  <path fill="none" d="M0 0h24v24H0z"/>
  <path d="M 7.253 5 L 16.748 5 C 17.122 5 17.426 5.304 17.426 5.678 L 17.426 18.66 C 17.426 18.922 17.144 19.085 16.918 18.955 C 16.914 18.953 16.91 18.95 16.906 18.948 L 12 15.871 L 7.094 18.947 C 6.873 19.086 6.585 18.934 6.575 18.673 C 6.575 18.669 6.575 18.665 6.575 18.66 L 6.575 5.678 C 6.575 5.304 6.879 5 7.253 5 Z M 16.069 6.356 L 7.931 6.356 L 7.931 16.822 L 12 14.271 L 16.069 16.822 L 16.069 6.356 Z"/>
</svg>