<?xml version="1.0" encoding="utf-8"?>
<svg viewBox="0 0 24 24" width="24" height="24" xmlns="http://www.w3.org/2000/svg">
  <ellipse style="stroke: rgb(0, 0, 0); fill: rgb(255, 255, 255); stroke-width: 0.75px;" cx="12" cy="12" rx="10" ry="10"/>
  <path fill="none" d="M0 0h24v24H0z"/>
  <path d="M 14.337 7.346 L 9.921 11.761 L 9.458 13.151 L 8.776 13.834 L 10.63 15.688 L 11.311 15.005 L 12.702 14.542 L 17.117 10.126 L 14.337 7.346 Z M 18.508 9.663 C 18.764 9.919 18.764 10.333 18.508 10.589 L 13.41 15.688 L 12.02 16.151 L 11.093 17.078 C 10.837 17.334 10.422 17.334 10.166 17.078 L 7.385 14.297 C 7.13 14.041 7.13 13.626 7.385 13.37 L 8.312 12.443 L 8.776 11.053 L 13.874 5.955 C 14.13 5.699 14.545 5.699 14.801 5.955 L 18.508 9.663 Z M 14.337 9.199 L 15.264 10.126 L 12.02 13.37 L 11.093 12.443 L 14.337 9.199 Z M 7.154 15.456 L 9.008 17.31 L 8.081 18.237 L 5.3 17.31 L 7.153 15.456 L 7.154 15.456 Z"/>
</svg>