<?xml version="1.0" encoding="utf-8"?>
<svg viewBox="0 0 24 24" width="24" height="24" xmlns="http://www.w3.org/2000/svg">
  <ellipse style="stroke: rgb(0, 0, 0); fill: rgb(255, 255, 255); stroke-width: 0.75px;" cx="12" cy="12" rx="10" ry="10"/>
  <path fill="none" d="M0 0h24v24H0z"/>
  <path d="M 12.276 7.333 L 18 7.333 C 18.368 7.333 18.666 7.632 18.666 8 L 18.666 17.333 C 18.666 17.702 18.368 18 18 18 L 6 18 C 5.631 18 5.333 17.702 5.333 17.333 L 5.333 6.667 C 5.333 6.298 5.631 6 6 6 L 10.942 6 L 12.276 7.333 Z M 17.333 11.333 L 6.666 11.333 L 6.666 16.667 L 17.333 16.667 L 17.333 11.333 Z M 17.333 10 L 17.333 8.667 L 11.724 8.667 L 10.39 7.333 L 6.666 7.333 L 6.666 10 L 17.333 10 Z" style=""/>
</svg>