<?xml version="1.0" encoding="utf-8"?>
<svg viewBox="0 0 24 24" width="24" height="24" xmlns="http://www.w3.org/2000/svg">
  <ellipse style="stroke: rgb(0, 0, 0); fill: rgb(255, 255, 255); stroke-width: 0.75px;" cx="12" cy="12" rx="10" ry="10"/>
  <path fill="none" d="M0 0h24v24H0z"/>
  <path d="M 17 17.859 L 17 18.97 L 15.667 18.97 L 15.667 18.081 L 10.721 18.905 C 10.518 18.939 10.333 18.783 10.333 18.577 L 10.333 17.637 L 7.667 17.637 L 7.667 18.97 L 6.333 18.97 L 6.333 17.637 L 5.667 17.637 C 5.298 17.637 5 17.338 5 16.97 L 5 6.97 C 5 6.602 5.298 6.303 5.667 6.303 L 10.333 6.303 L 10.333 5.363 C 10.333 5.158 10.518 5.001 10.721 5.035 L 17.776 6.211 C 18.097 6.264 18.333 6.542 18.333 6.868 L 18.333 8.303 L 19 8.303 L 19 9.637 L 18.333 9.637 L 18.333 14.303 L 19 14.303 L 19 15.637 L 18.333 15.637 L 18.333 17.072 C 18.333 17.398 18.097 17.676 17.776 17.729 L 17 17.859 Z M 6.333 7.637 L 6.333 16.303 L 10.333 16.303 L 10.333 7.637 L 6.333 7.637 Z M 11.667 17.397 L 17 16.507 L 17 7.433 L 11.667 6.544 L 11.667 17.396 L 11.667 17.397 Z M 14.667 13.637 C 14.115 13.637 13.667 12.89 13.667 11.97 C 13.667 11.05 14.115 10.303 14.667 10.303 C 15.219 10.303 15.667 11.05 15.667 11.97 C 15.667 12.89 15.219 13.637 14.667 13.637 Z"/>
</svg>