<?xml version="1.0" encoding="utf-8"?>
<svg viewBox="0 0 24 24" width="24" height="24" xmlns="http://www.w3.org/2000/svg">
  <ellipse style="stroke: rgb(0, 0, 0); fill: rgb(255, 255, 255); stroke-width: 0.75px;" cx="12" cy="12" rx="10" ry="10"/>
  <path fill="none" d="M0 0h24v24H0z"/>
  <path d="M 8.65 8.65 L 8.65 5.97 C 8.65 5.6 8.95 5.3 9.32 5.3 L 18.03 5.3 C 18.4 5.3 18.7 5.6 18.7 5.97 L 18.7 14.68 C 18.7 15.05 18.4 15.35 18.03 15.35 L 15.35 15.35 L 15.35 18.025 C 15.35 18.398 15.049 18.7 14.675 18.7 L 5.975 18.7 C 5.602 18.7 5.3 18.398 5.3 18.025 L 5.302 9.325 C 5.302 8.952 5.603 8.65 5.977 8.65 L 8.65 8.65 Z M 9.99 8.65 L 14.675 8.65 C 15.048 8.65 15.35 8.951 15.35 9.325 L 15.35 14.01 L 17.36 14.01 L 17.36 6.64 L 9.99 6.64 L 9.99 8.65 Z M 6.642 9.99 L 6.64 17.36 L 14.01 17.36 L 14.01 9.99 L 6.642 9.99 Z"/>
</svg>