<?xml version="1.0" encoding="utf-8"?>
<svg viewBox="0 0 24 24" width="24" height="24" xmlns="http://www.w3.org/2000/svg">
  <ellipse style="stroke: rgb(0, 0, 0); fill: rgb(255, 255, 255); stroke-width: 0.75px;" cx="12" cy="12" rx="10" ry="10"/>
  <path fill="none" d="M0 0h24v24H0z"/>
  <path d="M 16.048 15.074 L 19 18.025 L 18.025 19 L 15.074 16.048 C 13.976 16.928 12.61 17.407 11.203 17.405 C 7.779 17.405 5 14.626 5 11.203 C 5 7.779 7.779 5 11.203 5 C 14.626 5 17.405 7.779 17.405 11.203 C 17.407 12.61 16.928 13.976 16.048 15.074 Z M 14.666 14.562 C 15.54 13.663 16.029 12.457 16.027 11.203 C 16.027 8.537 13.868 6.378 11.203 6.378 C 8.537 6.378 6.378 8.537 6.378 11.203 C 6.378 13.868 8.537 16.027 11.203 16.027 C 12.457 16.029 13.663 15.54 14.562 14.666 L 14.666 14.562 Z"/>
</svg>