<?xml version="1.0" encoding="utf-8"?>
<svg viewBox="0 0 24 24" width="24" height="24" xmlns="http://www.w3.org/2000/svg">
  <ellipse style="stroke: rgb(0, 0, 0); fill: rgb(255, 255, 255); stroke-width: 0.75px;" cx="12" cy="12" rx="10" ry="10"/>
  <path fill="none" d="M0 0h24v24H0z"/>
  <path d="M 7.333 7.333 L 7.333 16.667 L 16.667 16.667 L 16.667 7.333 L 7.333 7.333 Z M 6.667 6 L 17.333 6 C 17.702 6 18 6.298 18 6.667 L 18 17.333 C 18 17.702 17.702 18 17.333 18 L 6.667 18 C 6.298 18 6 17.702 6 17.333 L 6 6.667 C 6 6.298 6.298 6 6.667 6 Z M 12.667 10.667 L 12.667 15.333 L 11.333 15.333 L 11.333 10.667 L 8.667 10.667 L 8.667 9.333 L 15.333 9.333 L 15.333 10.667 L 12.667 10.667 Z"/>
</svg>