<?xml version="1.0" encoding="utf-8"?>
<svg viewBox="0 0 24 24" width="24" height="24" xmlns="http://www.w3.org/2000/svg">
  <ellipse style="stroke: rgb(0, 0, 0); fill: rgb(255, 255, 255); stroke-width: 0.75px;" cx="12" cy="12" rx="10" ry="10"/>
  <path fill="none" d="M0 0h24v24H0z"/>
  <path d="M 14.801 5.956 L 18.508 9.664 C 18.764 9.92 18.764 10.334 18.508 10.59 L 13.41 15.689 L 12.02 16.152 L 11.093 17.079 C 10.837 17.335 10.422 17.335 10.166 17.079 L 7.385 14.298 C 7.13 14.042 7.13 13.627 7.385 13.371 L 8.312 12.444 L 8.776 11.054 L 13.874 5.956 C 14.13 5.7 14.545 5.7 14.801 5.956 Z M 15.264 8.274 L 11.093 12.444 L 12.02 13.371 L 16.191 9.2 L 15.264 8.274 Z M 7.153 15.457 L 9.008 17.311 L 8.081 18.237 L 5.3 17.311 L 7.153 15.457 Z"/>
</svg>