<?xml version="1.0" encoding="utf-8"?>
<svg viewBox="0 0 24 24" width="24" height="24" xmlns="http://www.w3.org/2000/svg">
  <ellipse style="stroke: rgb(0, 0, 0); fill: rgb(255, 255, 255); stroke-width: 0.75px;" cx="12" cy="12" rx="10" ry="10"/>
  <path fill="none" d="M0 0h24v24H0z"/>
  <path d="M 11.333 7.333 L 7.333 7.333 L 7.333 11.333 L 11.333 11.333 L 11.333 7.333 Z M 12.667 7.333 L 12.667 11.333 L 16.667 11.333 L 16.667 7.333 L 12.667 7.333 Z M 16.667 12.667 L 12.667 12.667 L 12.667 16.667 L 16.667 16.667 L 16.667 12.667 Z M 11.333 16.667 L 11.333 12.667 L 7.333 12.667 L 7.333 16.667 L 11.333 16.667 Z M 6 6 L 18 6 L 18 18 L 6 18 L 6 6 Z" style=""/>
</svg>